<svg xmlns="http://www.w3.org/2000/svg" viewBox="0 0 1100 1020" width="1100" height="1020" font-family="Segoe UI, Arial, sans-serif">

  <!-- Background -->
  <rect width="1100" height="1020" fill="#F0F4F8" rx="12"/>

  <!-- ═══════════════════════════════════════════════════ -->
  <!-- TITLE BANNER                                        -->
  <!-- ═══════════════════════════════════════════════════ -->
  <rect x="50" y="20" width="1000" height="65" rx="10" fill="#1E3A5F"/>
  <text x="550" y="48" text-anchor="middle" fill="#FFFFFF" font-size="22" font-weight="bold">StockEase — Inventory Management System</text>
  <text x="550" y="72" text-anchor="middle" fill="#A8C4E0" font-size="13">System Architecture Diagram</text>

  <!-- ═══════════════════════════════════════════════════ -->
  <!-- LAYER LABEL: ACTORS                                 -->
  <!-- ═══════════════════════════════════════════════════ -->
  <text x="60" y="118" fill="#1E3A5F" font-size="12" font-weight="bold" letter-spacing="1">ACTORS</text>
  <line x1="110" y1="112" x2="1050" y2="112" stroke="#1E3A5F" stroke-width="1" stroke-dasharray="4,3" opacity="0.4"/>

  <!-- Actor: Store Owner -->
  <ellipse cx="200" cy="155" rx="34" ry="22" fill="#FFFFFF" stroke="#1E3A5F" stroke-width="2"/>
  <circle cx="200" cy="148" r="9" fill="#1E3A5F"/>
  <path d="M183,165 Q200,158 217,165" stroke="#1E3A5F" stroke-width="2" fill="none"/>
  <rect x="150" y="183" width="100" height="26" rx="6" fill="#1E3A5F"/>
  <text x="200" y="201" text-anchor="middle" fill="#FFFFFF" font-size="12" font-weight="bold">Store Owner</text>

  <!-- Actor: Store Manager -->
  <ellipse cx="360" cy="155" rx="34" ry="22" fill="#FFFFFF" stroke="#1E3A5F" stroke-width="2"/>
  <circle cx="360" cy="148" r="9" fill="#1E3A5F"/>
  <path d="M343,165 Q360,158 377,165" stroke="#1E3A5F" stroke-width="2" fill="none"/>
  <rect x="310" y="183" width="100" height="26" rx="6" fill="#1E3A5F"/>
  <text x="360" y="201" text-anchor="middle" fill="#FFFFFF" font-size="12" font-weight="bold">Store Manager</text>

  <!-- ═══════════════════════════════════════════════════ -->
  <!-- LAYER LABEL: PRESENTATION LAYER                    -->
  <!-- ═══════════════════════════════════════════════════ -->
  <text x="60" y="234" fill="#0D5C8A" font-size="12" font-weight="bold" letter-spacing="1">PRESENTATION LAYER</text>
  <line x1="195" y1="228" x2="1050" y2="228" stroke="#0D5C8A" stroke-width="1" stroke-dasharray="4,3" opacity="0.4"/>

  <!-- Web Frontend Box -->
  <rect x="60" y="242" width="470" height="185" rx="10" fill="#FFFFFF" stroke="#0D5C8A" stroke-width="2"/>
  <rect x="60" y="242" width="470" height="34" rx="10" fill="#0D5C8A"/>
  <rect x="60" y="262" width="470" height="14" fill="#0D5C8A"/>
  <text x="295" y="264" text-anchor="middle" fill="#FFFFFF" font-size="13" font-weight="bold">🌐  Web Frontend</text>
  <text x="295" y="278" text-anchor="middle" fill="#A8D0F0" font-size="10">React + TypeScript + Tailwind CSS</text>

  <!-- Web Feature boxes -->
  <rect x="78"  y="290" width="96"  height="52" rx="6" fill="#E8F4FD" stroke="#0D5C8A" stroke-width="1.2"/>
  <text x="126" y="311" text-anchor="middle" fill="#0D5C8A" font-size="11" font-weight="bold">Auth</text>
  <text x="126" y="326" text-anchor="middle" fill="#444" font-size="10">Login / Register</text>
  <text x="126" y="338" text-anchor="middle" fill="#444" font-size="10">Google OAuth</text>

  <rect x="184" y="290" width="110" height="52" rx="6" fill="#E8F4FD" stroke="#0D5C8A" stroke-width="1.2"/>
  <text x="239" y="311" text-anchor="middle" fill="#0D5C8A" font-size="11" font-weight="bold">Inventory</text>
  <text x="239" y="326" text-anchor="middle" fill="#444" font-size="10">Product List</text>
  <text x="239" y="338" text-anchor="middle" fill="#444" font-size="10">Add / Edit / Delete</text>

  <rect x="304" y="290" width="102" height="52" rx="6" fill="#E8F4FD" stroke="#0D5C8A" stroke-width="1.2"/>
  <text x="355" y="311" text-anchor="middle" fill="#0D5C8A" font-size="11" font-weight="bold">Sales</text>
  <text x="355" y="326" text-anchor="middle" fill="#444" font-size="10">Record Sale</text>
  <text x="355" y="338" text-anchor="middle" fill="#444" font-size="10">Sales History</text>

  <rect x="416" y="290" width="96"  height="52" rx="6" fill="#E8F4FD" stroke="#0D5C8A" stroke-width="1.2"/>
  <text x="464" y="311" text-anchor="middle" fill="#0D5C8A" font-size="11" font-weight="bold">Dashboard</text>
  <text x="464" y="326" text-anchor="middle" fill="#444" font-size="10">Summary</text>
  <text x="464" y="338" text-anchor="middle" fill="#444" font-size="10">Analytics</text>

  <!-- Profile -->
  <rect x="78"  y="354" width="96"  height="38" rx="6" fill="#E8F4FD" stroke="#0D5C8A" stroke-width="1.2"/>
  <text x="126" y="372" text-anchor="middle" fill="#0D5C8A" font-size="11" font-weight="bold">Profile</text>
  <text x="126" y="384" text-anchor="middle" fill="#444" font-size="10">User Settings</text>

  <!-- Mobile App Box -->
  <rect x="570" y="242" width="280" height="185" rx="10" fill="#FFFFFF" stroke="#7B2D8B" stroke-width="2"/>
  <rect x="570" y="242" width="280" height="34" rx="10" fill="#7B2D8B"/>
  <rect x="570" y="262" width="280" height="14" fill="#7B2D8B"/>
  <text x="710" y="264" text-anchor="middle" fill="#FFFFFF" font-size="13" font-weight="bold">📱  Mobile App</text>
  <text x="710" y="278" text-anchor="middle" fill="#D8B0E8" font-size="10">Android · Kotlin · Jetpack Compose</text>

  <!-- Mobile Feature boxes -->
  <rect x="590" y="290" width="112" height="52" rx="6" fill="#F5EAF9" stroke="#7B2D8B" stroke-width="1.2"/>
  <text x="646" y="311" text-anchor="middle" fill="#7B2D8B" font-size="11" font-weight="bold">Auth</text>
  <text x="646" y="326" text-anchor="middle" fill="#444" font-size="10">Login / Register</text>
  <text x="646" y="338" text-anchor="middle" fill="#444" font-size="10">JWT Session</text>

  <rect x="714" y="290" width="116" height="52" rx="6" fill="#F5EAF9" stroke="#7B2D8B" stroke-width="1.2"/>
  <text x="772" y="311" text-anchor="middle" fill="#7B2D8B" font-size="11" font-weight="bold">Home</text>
  <text x="772" y="326" text-anchor="middle" fill="#444" font-size="10">Overview Screen</text>
  <text x="772" y="338" text-anchor="middle" fill="#444" font-size="10">Navigation</text>

  <!-- Retrofit label -->
  <rect x="590" y="356" width="116" height="38" rx="6" fill="#F5EAF9" stroke="#7B2D8B" stroke-width="1.2"/>
  <text x="648" y="372" text-anchor="middle" fill="#7B2D8B" font-size="11" font-weight="bold">Retrofit Client</text>
  <text x="648" y="384" text-anchor="middle" fill="#444" font-size="10">HTTP API Calls</text>

  <!-- ═══════════════════════════════════════════════════ -->
  <!-- ARROW: Actors → Presentation                        -->
  <!-- ═══════════════════════════════════════════════════ -->
  <!-- Store Owner → Web -->
  <line x1="200" y1="209" x2="200" y2="240" stroke="#1E3A5F" stroke-width="2" marker-end="url(#arrowBlue)"/>
  <!-- Store Manager → Web -->
  <line x1="360" y1="209" x2="340" y2="240" stroke="#1E3A5F" stroke-width="2" marker-end="url(#arrowBlue)"/>
  <!-- Store Manager → Mobile (dashed optional) -->
  <line x1="380" y1="209" x2="640" y2="240" stroke="#7B2D8B" stroke-width="1.5" stroke-dasharray="6,3" marker-end="url(#arrowPurple)"/>

  <!-- ═══════════════════════════════════════════════════ -->
  <!-- ARROW: Presentation → API Layer                    -->
  <!-- ═══════════════════════════════════════════════════ -->
  <!-- Web → API -->
  <line x1="295" y1="427" x2="295" y2="480" stroke="#0D5C8A" stroke-width="2" marker-end="url(#arrowBlue2)"/>
  <text x="305" y="457" fill="#0D5C8A" font-size="10">REST / HTTPS</text>
  <!-- Mobile → API -->
  <line x1="710" y1="427" x2="710" y2="480" stroke="#7B2D8B" stroke-width="2" marker-end="url(#arrowPurple)"/>
  <text x="720" y="457" fill="#7B2D8B" font-size="10">REST / HTTPS</text>

  <!-- ═══════════════════════════════════════════════════ -->
  <!-- LAYER LABEL: API / BUSINESS LOGIC LAYER            -->
  <!-- ═══════════════════════════════════════════════════ -->
  <text x="60" y="476" fill="#B45309" font-size="12" font-weight="bold" letter-spacing="1">API / BUSINESS LOGIC LAYER</text>
  <line x1="240" y1="470" x2="1050" y2="470" stroke="#B45309" stroke-width="1" stroke-dasharray="4,3" opacity="0.4"/>

  <!-- API Layer outer box -->
  <rect x="60" y="484" width="910" height="215" rx="10" fill="#FFFFFF" stroke="#B45309" stroke-width="2"/>
  <rect x="60" y="484" width="910" height="34" rx="10" fill="#B45309"/>
  <rect x="60" y="504" width="910" height="14" fill="#B45309"/>
  <text x="515" y="507" text-anchor="middle" fill="#FFFFFF" font-size="13" font-weight="bold">⚙️  REST API Server</text>
  <text x="515" y="521" text-anchor="middle" fill="#FCE8CC" font-size="10">Spring Boot · Java · Port 8080 · /api/v1</text>

  <!-- Security/JWT strip -->
  <rect x="78" y="530" width="874" height="26" rx="5" fill="#FEF3E2" stroke="#B45309" stroke-width="1"/>
  <text x="515" y="548" text-anchor="middle" fill="#B45309" font-size="11" font-weight="bold">🔐  Security Layer: JWT Authentication Filter · Spring Security · CORS Configuration</text>

  <!-- Module boxes row -->
  <!-- Auth Module -->
  <rect x="78"  y="566" width="186" height="118" rx="7" fill="#FEF3E2" stroke="#B45309" stroke-width="1.5"/>
  <rect x="78"  y="566" width="186" height="24"  rx="7" fill="#B45309"/>
  <rect x="78"  y="582" width="186" height="8"   fill="#B45309"/>
  <text x="171" y="582" text-anchor="middle" fill="#FFFFFF" font-size="11" font-weight="bold">Auth Module</text>
  <text x="171" y="602" text-anchor="middle" fill="#555" font-size="10">• Login / Register</text>
  <text x="171" y="616" text-anchor="middle" fill="#555" font-size="10">• Google OAuth 2.0</text>
  <text x="171" y="630" text-anchor="middle" fill="#555" font-size="10">• JWT Tokens</text>
  <text x="171" y="644" text-anchor="middle" fill="#555" font-size="10">• Refresh Token</text>
  <text x="171" y="658" text-anchor="middle" fill="#555" font-size="10">• User Roles</text>
  <text x="171" y="672" text-anchor="middle" fill="#555" font-size="10">• Password Reset (Email)</text>

  <!-- Product Module -->
  <rect x="276"  y="566" width="200" height="118" rx="7" fill="#FEF3E2" stroke="#B45309" stroke-width="1.5"/>
  <rect x="276"  y="566" width="200" height="24"  rx="7" fill="#B45309"/>
  <rect x="276"  y="582" width="200" height="8"   fill="#B45309"/>
  <text x="376" y="582" text-anchor="middle" fill="#FFFFFF" font-size="11" font-weight="bold">Product / Inventory Module</text>
  <text x="376" y="602" text-anchor="middle" fill="#555" font-size="10">• Add / Edit / Delete Product</text>
  <text x="376" y="616" text-anchor="middle" fill="#555" font-size="10">• Product Listing</text>
  <text x="376" y="630" text-anchor="middle" fill="#555" font-size="10">• Stock Quantity Tracking</text>
  <text x="376" y="644" text-anchor="middle" fill="#555" font-size="10">• Image Upload (File)</text>
  <text x="376" y="658" text-anchor="middle" fill="#555" font-size="10">• Low Stock Detection</text>

  <!-- Sales Module -->
  <rect x="488"  y="566" width="196" height="118" rx="7" fill="#FEF3E2" stroke="#B45309" stroke-width="1.5"/>
  <rect x="488"  y="566" width="196" height="24"  rx="7" fill="#B45309"/>
  <rect x="488"  y="582" width="196" height="8"   fill="#B45309"/>
  <text x="586" y="582" text-anchor="middle" fill="#FFFFFF" font-size="11" font-weight="bold">Sales Module</text>
  <text x="586" y="602" text-anchor="middle" fill="#555" font-size="10">• Record Sales Transaction</text>
  <text x="586" y="616" text-anchor="middle" fill="#555" font-size="10">• Sales Items (multi-product)</text>
  <text x="586" y="630" text-anchor="middle" fill="#555" font-size="10">• Auto Deduct Stock</text>
  <text x="586" y="644" text-anchor="middle" fill="#555" font-size="10">• Sales History</text>
  <text x="586" y="658" text-anchor="middle" fill="#555" font-size="10">• Insufficient Stock Guard</text>

  <!-- Dashboard Module -->
  <rect x="696"  y="566" width="256" height="118" rx="7" fill="#FEF3E2" stroke="#B45309" stroke-width="1.5"/>
  <rect x="696"  y="566" width="256" height="24"  rx="7" fill="#B45309"/>
  <rect x="696"  y="582" width="256" height="8"   fill="#B45309"/>
  <text x="824" y="582" text-anchor="middle" fill="#FFFFFF" font-size="11" font-weight="bold">Shared / Infrastructure</text>
  <text x="824" y="602" text-anchor="middle" fill="#555" font-size="10">• Email Service (Gmail SMTP)</text>
  <text x="824" y="616" text-anchor="middle" fill="#555" font-size="10">• Exchange Rate Service</text>
  <text x="824" y="630" text-anchor="middle" fill="#555" font-size="10">• Global Exception Handler</text>
  <text x="824" y="644" text-anchor="middle" fill="#555" font-size="10">• API Response Wrapper</text>
  <text x="824" y="658" text-anchor="middle" fill="#555" font-size="10">• File Upload Service</text>

  <!-- ═══════════════════════════════════════════════════ -->
  <!-- ARROW: API → External Services                     -->
  <!-- ═══════════════════════════════════════════════════ -->
  <line x1="171" y1="699" x2="171" y2="736" stroke="#16A34A" stroke-width="1.8" stroke-dasharray="5,3" marker-end="url(#arrowGreen)"/>
  <line x1="824" y1="699" x2="824" y2="736" stroke="#16A34A" stroke-width="1.8" stroke-dasharray="5,3" marker-end="url(#arrowGreen)"/>
  <!-- connect to exchange rate -->
  <line x1="586" y1="699" x2="586" y2="736" stroke="#16A34A" stroke-width="1.8" stroke-dasharray="5,3" marker-end="url(#arrowGreen)"/>

  <!-- ═══════════════════════════════════════════════════ -->
  <!-- EXTERNAL SERVICES                                   -->
  <!-- ═══════════════════════════════════════════════════ -->
  <text x="60" y="732" fill="#16A34A" font-size="12" font-weight="bold" letter-spacing="1">EXTERNAL SERVICES</text>
  <line x1="200" y1="726" x2="1050" y2="726" stroke="#16A34A" stroke-width="1" stroke-dasharray="4,3" opacity="0.4"/>

  <!-- Google OAuth -->
  <rect x="60"  y="740" width="200" height="52" rx="8" fill="#FFFFFF" stroke="#16A34A" stroke-width="1.8"/>
  <text x="160" y="762" text-anchor="middle" fill="#16A34A" font-size="12" font-weight="bold">Google OAuth 2.0</text>
  <text x="160" y="778" text-anchor="middle" fill="#555" font-size="10">Third-Party Authentication</text>
  <text x="160" y="790" text-anchor="middle" fill="#888" font-size="9">accounts.google.com</text>

  <!-- Gmail SMTP -->
  <rect x="730" y="740" width="200" height="52" rx="8" fill="#FFFFFF" stroke="#16A34A" stroke-width="1.8"/>
  <text x="830" y="762" text-anchor="middle" fill="#16A34A" font-size="12" font-weight="bold">Gmail SMTP</text>
  <text x="830" y="778" text-anchor="middle" fill="#555" font-size="10">Email Notifications</text>
  <text x="830" y="790" text-anchor="middle" fill="#888" font-size="9">smtp.gmail.com:587</text>

  <!-- Exchange Rate -->
  <rect x="460" y="740" width="210" height="52" rx="8" fill="#FFFFFF" stroke="#16A34A" stroke-width="1.8"/>
  <text x="565" y="762" text-anchor="middle" fill="#16A34A" font-size="12" font-weight="bold">Exchange Rate API</text>
  <text x="565" y="778" text-anchor="middle" fill="#555" font-size="10">Currency Conversion</text>
  <text x="565" y="790" text-anchor="middle" fill="#888" font-size="9">External Rate Provider</text>

  <!-- ═══════════════════════════════════════════════════ -->
  <!-- ARROWS: API → Data Layer                           -->
  <!-- ═══════════════════════════════════════════════════ -->
  <line x1="376" y1="699" x2="340" y2="840" stroke="#DC2626" stroke-width="2" marker-end="url(#arrowRed)"/>
  <text x="330" y="780" fill="#DC2626" font-size="10">JPA / SQL</text>
  <line x1="490" y1="699" x2="820" y2="840" stroke="#DC2626" stroke-width="1.5" stroke-dasharray="5,3" marker-end="url(#arrowRed)"/>
  <text x="640" y="800" fill="#DC2626" font-size="10">File I/O</text>

  <!-- ═══════════════════════════════════════════════════ -->
  <!-- LAYER LABEL: DATA STORAGE LAYER                    -->
  <!-- ═══════════════════════════════════════════════════ -->
  <text x="60" y="836" fill="#DC2626" font-size="12" font-weight="bold" letter-spacing="1">DATA / STORAGE LAYER</text>
  <line x1="215" y1="830" x2="1050" y2="830" stroke="#DC2626" stroke-width="1" stroke-dasharray="4,3" opacity="0.4"/>

  <!-- PostgreSQL box -->
  <rect x="60" y="844" width="680" height="148" rx="10" fill="#FFFFFF" stroke="#DC2626" stroke-width="2"/>
  <rect x="60" y="844" width="680" height="32" rx="10" fill="#DC2626"/>
  <rect x="60" y="862" width="680" height="14" fill="#DC2626"/>
  <text x="400" y="865" text-anchor="middle" fill="#FFFFFF" font-size="13" font-weight="bold">🐘  PostgreSQL Database (via Supabase)</text>
  <text x="400" y="879" text-anchor="middle" fill="#FFD0D0" font-size="10">Supabase Cloud PostgreSQL (AWS ap-south-1) : 5432</text>

  <!-- Table labels -->
  <rect x="78"  y="888" width="124" height="90" rx="6" fill="#FEF2F2" stroke="#DC2626" stroke-width="1.2"/>
  <text x="140" y="905" text-anchor="middle" fill="#DC2626" font-size="11" font-weight="bold">users</text>
  <text x="140" y="920" text-anchor="middle" fill="#555" font-size="10">id, name, email</text>
  <text x="140" y="934" text-anchor="middle" fill="#555" font-size="10">password, role</text>
  <text x="140" y="948" text-anchor="middle" fill="#555" font-size="10">created_at</text>

  <rect x="212" y="888" width="140" height="90" rx="6" fill="#FEF2F2" stroke="#DC2626" stroke-width="1.2"/>
  <text x="282" y="905" text-anchor="middle" fill="#DC2626" font-size="11" font-weight="bold">oauth_accounts</text>
  <text x="282" y="920" text-anchor="middle" fill="#555" font-size="10">id, provider</text>
  <text x="282" y="934" text-anchor="middle" fill="#555" font-size="10">provider_id</text>
  <text x="282" y="948" text-anchor="middle" fill="#555" font-size="10">user_id (FK)</text>

  <rect x="362" y="888" width="144" height="90" rx="6" fill="#FEF2F2" stroke="#DC2626" stroke-width="1.2"/>
  <text x="434" y="905" text-anchor="middle" fill="#DC2626" font-size="11" font-weight="bold">products</text>
  <text x="434" y="920" text-anchor="middle" fill="#555" font-size="10">id, name, price</text>
  <text x="434" y="934" text-anchor="middle" fill="#555" font-size="10">quantity, image</text>
  <text x="434" y="948" text-anchor="middle" fill="#555" font-size="10">user_id (FK)</text>

  <rect x="516" y="888" width="124" height="90" rx="6" fill="#FEF2F2" stroke="#DC2626" stroke-width="1.2"/>
  <text x="578" y="905" text-anchor="middle" fill="#DC2626" font-size="11" font-weight="bold">sales</text>
  <text x="578" y="920" text-anchor="middle" fill="#555" font-size="10">id, total</text>
  <text x="578" y="934" text-anchor="middle" fill="#555" font-size="10">sale_date</text>
  <text x="578" y="948" text-anchor="middle" fill="#555" font-size="10">user_id (FK)</text>

  <rect x="650" y="888" width="82" height="90" rx="6" fill="#FEF2F2" stroke="#DC2626" stroke-width="1.2"/>
  <text x="691" y="905" text-anchor="middle" fill="#DC2626" font-size="10" font-weight="bold">sale_items</text>
  <text x="691" y="920" text-anchor="middle" fill="#555" font-size="10">id</text>
  <text x="691" y="934" text-anchor="middle" fill="#555" font-size="10">quantity</text>
  <text x="691" y="948" text-anchor="middle" fill="#555" font-size="10">sale, product</text>

  <!-- File Storage box -->
  <rect x="760" y="844" width="210" height="148" rx="10" fill="#FFFFFF" stroke="#6B7280" stroke-width="2"/>
  <rect x="760" y="844" width="210" height="32" rx="10" fill="#6B7280"/>
  <rect x="760" y="862" width="210" height="14" fill="#6B7280"/>
  <text x="865" y="865" text-anchor="middle" fill="#FFFFFF" font-size="13" font-weight="bold">📁  Local File Storage</text>
  <text x="865" y="879" text-anchor="middle" fill="#D0D5DD" font-size="10">Server File System</text>
  <rect x="778" y="888" width="174" height="90" rx="6" fill="#F3F4F6" stroke="#6B7280" stroke-width="1.2"/>
  <text x="865" y="907" text-anchor="middle" fill="#374151" font-size="11" font-weight="bold">uploads/products/</text>
  <text x="865" y="924" text-anchor="middle" fill="#555" font-size="10">Product Images</text>
  <text x="865" y="940" text-anchor="middle" fill="#888" font-size="9">.jpg / .png files</text>
  <text x="865" y="955" text-anchor="middle" fill="#888" font-size="9">Served via /api/v1/files</text>

  <!-- ═══════════════════════════════════════════════════ -->
  <!-- LEGEND                                              -->
  <!-- ═══════════════════════════════════════════════════ -->
  <rect x="940" y="242" width="120" height="190" rx="8" fill="#FFFFFF" stroke="#AAAAAA" stroke-width="1.2"/>
  <text x="1000" y="260" text-anchor="middle" fill="#333" font-size="11" font-weight="bold">Legend</text>
  <line x1="952" y1="275" x2="990" y2="275" stroke="#0D5C8A" stroke-width="2" marker-end="url(#arrowBlue2)"/>
  <text x="994" y="279" fill="#333" font-size="9">HTTP / REST</text>
  <line x1="952" y1="295" x2="990" y2="295" stroke="#7B2D8B" stroke-width="2" marker-end="url(#arrowPurple)"/>
  <text x="994" y="299" fill="#333" font-size="9">Mobile REST</text>
  <line x1="952" y1="315" x2="990" y2="315" stroke="#16A34A" stroke-width="1.8" stroke-dasharray="5,3" marker-end="url(#arrowGreen)"/>
  <text x="994" y="319" fill="#333" font-size="9">External API</text>
  <line x1="952" y1="335" x2="990" y2="335" stroke="#DC2626" stroke-width="2" marker-end="url(#arrowRed)"/>
  <text x="994" y="339" fill="#333" font-size="9">DB / Storage</text>
  <line x1="952" y1="355" x2="990" y2="355" stroke="#1E3A5F" stroke-width="2" marker-end="url(#arrowBlue)"/>
  <text x="994" y="359" fill="#333" font-size="9">User Access</text>
  <line x1="952" y1="375" x2="990" y2="375" stroke="#1E3A5F" stroke-width="1.5" stroke-dasharray="6,3" marker-end="url(#arrowBlue)"/>
  <text x="994" y="379" fill="#333" font-size="9">Optional</text>
  <!-- legend boxes -->
  <rect x="952" y="392" width="12" height="12" fill="#0D5C8A"/>
  <text x="970" y="403" fill="#333" font-size="9">Web Frontend</text>
  <rect x="952" y="408" width="12" height="12" fill="#7B2D8B"/>
  <text x="970" y="419" fill="#333" font-size="9">Mobile App</text>

  <!-- ═══════════════════════════════════════════════════ -->
  <!-- ARROW MARKER DEFS                                   -->
  <!-- ═══════════════════════════════════════════════════ -->
  <defs>
    <marker id="arrowBlue" markerWidth="8" markerHeight="8" refX="6" refY="3" orient="auto">
      <path d="M0,0 L0,6 L8,3 z" fill="#1E3A5F"/>
    </marker>
    <marker id="arrowBlue2" markerWidth="8" markerHeight="8" refX="6" refY="3" orient="auto">
      <path d="M0,0 L0,6 L8,3 z" fill="#0D5C8A"/>
    </marker>
    <marker id="arrowPurple" markerWidth="8" markerHeight="8" refX="6" refY="3" orient="auto">
      <path d="M0,0 L0,6 L8,3 z" fill="#7B2D8B"/>
    </marker>
    <marker id="arrowGreen" markerWidth="8" markerHeight="8" refX="6" refY="3" orient="auto">
      <path d="M0,0 L0,6 L8,3 z" fill="#16A34A"/>
    </marker>
    <marker id="arrowRed" markerWidth="8" markerHeight="8" refX="6" refY="3" orient="auto">
      <path d="M0,0 L0,6 L8,3 z" fill="#DC2626"/>
    </marker>
  </defs>

  <!-- Footer -->
  <text x="550" y="1010" text-anchor="middle" fill="#888" font-size="10">StockEase — IT342 Batucan · System Architecture Diagram</text>

</svg>
