<svg xmlns="http://www.w3.org/2000/svg" viewBox="0 0 1100 1420" width="1100" height="1420" font-family="Segoe UI, Arial, sans-serif">

  <!-- ── Background ── -->
  <rect width="1100" height="1420" fill="#f0f4f8" rx="12"/>

  <!-- ══════════════════════════════════════════════
       TITLE BANNER
  ══════════════════════════════════════════════ -->
  <rect x="30" y="20" width="1040" height="80" rx="10" fill="#1e3a5f"/>
  <text x="550" y="53" text-anchor="middle" fill="white" font-size="24" font-weight="bold">StockEase — System Architecture Diagram</text>
  <text x="550" y="82" text-anchor="middle" fill="#90cdf4" font-size="15">Vertical Slice Architecture  |  Inventory Management System</text>

  <!-- ══════════════════════════════════════════════
       ACTORS / USERS
  ══════════════════════════════════════════════ -->
  <text x="550" y="132" text-anchor="middle" fill="#4a5568" font-size="13" font-weight="bold" letter-spacing="2">ACTORS</text>

  <!-- Store Owner -->
  <circle cx="320" cy="175" r="22" fill="#2b6cb0" stroke="white" stroke-width="2"/>
  <text x="320" y="180" text-anchor="middle" fill="white" font-size="18">👤</text>
  <text x="320" y="212" text-anchor="middle" fill="#2d3748" font-size="13" font-weight="bold">Store Owner</text>
  <text x="320" y="228" text-anchor="middle" fill="#718096" font-size="11">(Web + Mobile)</text>

  <!-- Admin -->
  <circle cx="780" cy="175" r="22" fill="#276749" stroke="white" stroke-width="2"/>
  <text x="780" y="180" text-anchor="middle" fill="white" font-size="18">🛡</text>
  <text x="780" y="212" text-anchor="middle" fill="#2d3748" font-size="13" font-weight="bold">Admin</text>
  <text x="780" y="228" text-anchor="middle" fill="#718096" font-size="11">(Web Only)</text>

  <!-- Arrows actors → client layer -->
  <line x1="320" y1="235" x2="320" y2="264" stroke="#4a5568" stroke-width="2" marker-end="url(#arr)"/>
  <line x1="780" y1="235" x2="780" y2="264" stroke="#4a5568" stroke-width="2" marker-end="url(#arr)"/>

  <!-- ══════════════════════════════════════════════
       CLIENT LAYER
  ══════════════════════════════════════════════ -->
  <rect x="30" y="268" width="1040" height="230" rx="10" fill="#ebf8ff" stroke="#4299e1" stroke-width="2"/>
  <text x="42" y="290" fill="#2b6cb0" font-size="13" font-weight="bold" letter-spacing="1">CLIENT LAYER</text>

  <!-- Web Frontend box -->
  <rect x="60" y="300" width="450" height="182" rx="8" fill="white" stroke="#63b3ed" stroke-width="1.5"/>
  <rect x="60" y="300" width="450" height="32" rx="8" fill="#4299e1"/>
  <text x="285" y="321" text-anchor="middle" fill="white" font-size="14" font-weight="bold">🌐  Web Frontend</text>

  <text x="80" y="352" fill="#4a5568" font-size="12" font-weight="bold">Tech Stack:</text>
  <text x="80" y="370" fill="#718096" font-size="11">React 18 · TypeScript · Tailwind CSS · React Router</text>

  <text x="80" y="394" fill="#4a5568" font-size="12" font-weight="bold">Vertical Slices:</text>
  <!-- slice pills -->
  <rect x="80"  y="402" width="82" height="22" rx="11" fill="#bee3f8"/><text x="121"  y="417" text-anchor="middle" fill="#2b6cb0" font-size="11">Auth</text>
  <rect x="170" y="402" width="100" height="22" rx="11" fill="#c6f6d5"/><text x="220" y="417" text-anchor="middle" fill="#276749" font-size="11">Dashboard</text>
  <rect x="278" y="402" width="90"  height="22" rx="11" fill="#fefcbf"/><text x="323" y="417" text-anchor="middle" fill="#744210" font-size="11">Product</text>
  <rect x="376" y="402" width="80"  height="22" rx="11" fill="#fed7d7"/><text x="416" y="417" text-anchor="middle" fill="#742a2a" font-size="11">Sales</text>

  <text x="80" y="446" fill="#4a5568" font-size="12" font-weight="bold">Shared:</text>
  <text x="80" y="463" fill="#718096" font-size="11">api.ts (Axios) · AuthContext · Navbar · ProtectedRoute</text>

  <!-- Mobile App box -->
  <rect x="590" y="300" width="450" height="182" rx="8" fill="white" stroke="#68d391" stroke-width="1.5"/>
  <rect x="590" y="300" width="450" height="32" rx="8" fill="#38a169"/>
  <text x="815" y="321" text-anchor="middle" fill="white" font-size="14" font-weight="bold">📱  Mobile App (Android)</text>

  <text x="610" y="352" fill="#4a5568" font-size="12" font-weight="bold">Tech Stack:</text>
  <text x="610" y="370" fill="#718096" font-size="11">Kotlin · Jetpack Compose · Retrofit 2 · Material 3</text>

  <text x="610" y="394" fill="#4a5568" font-size="12" font-weight="bold">Vertical Slices:</text>
  <rect x="610" y="402" width="82" height="22" rx="11" fill="#bee3f8"/><text x="651"  y="417" text-anchor="middle" fill="#2b6cb0" font-size="11">Auth</text>
  <rect x="700" y="402" width="80"  height="22" rx="11" fill="#c6f6d5"/><text x="740" y="417" text-anchor="middle" fill="#276749" font-size="11">Home</text>

  <text x="610" y="446" fill="#4a5568" font-size="12" font-weight="bold">Shared:</text>
  <text x="610" y="463" fill="#718096" font-size="11">RetrofitClient · ApiService (Login, Register)</text>

  <!-- Arrow from client → backend -->
  <line x1="550" y1="500" x2="550" y2="535" stroke="#4a5568" stroke-width="2.5" stroke-dasharray="6,3" marker-end="url(#arr)"/>
  <text x="550" y="524" text-anchor="middle" fill="#4a5568" font-size="11" font-style="italic">HTTPS / REST API (JSON + JWT)</text>

  <!-- ══════════════════════════════════════════════
       BACKEND LAYER
  ══════════════════════════════════════════════ -->
  <rect x="30" y="538" width="1040" height="530" rx="10" fill="#fffaf0" stroke="#ed8936" stroke-width="2"/>
  <text x="42" y="560" fill="#c05621" font-size="13" font-weight="bold" letter-spacing="1">BACKEND LAYER — Spring Boot 3  ·  Port 8080  ·  /api/v1</text>

  <!-- ── Shared Infrastructure bar ── -->
  <rect x="60" y="568" width="980" height="76" rx="8" fill="#feebc8" stroke="#ed8936" stroke-width="1"/>
  <text x="550" y="586" text-anchor="middle" fill="#7b341e" font-size="12" font-weight="bold">SHARED INFRASTRUCTURE</text>

  <!-- shared pills -->
  <rect x="72"  y="593" width="128" height="24" rx="12" fill="#fed7aa"/><text x="136"  y="609" text-anchor="middle" fill="#7b341e" font-size="11">JWT Auth Filter</text>
  <rect x="208" y="593" width="110" height="24" rx="12" fill="#fed7aa"/><text x="263"  y="609" text-anchor="middle" fill="#7b341e" font-size="11">JWT Provider</text>
  <rect x="326" y="593" width="120" height="24" rx="12" fill="#fed7aa"/><text x="386"  y="609" text-anchor="middle" fill="#7b341e" font-size="11">Security Config</text>
  <rect x="454" y="593" width="115" height="24" rx="12" fill="#fed7aa"/><text x="511"  y="609" text-anchor="middle" fill="#7b341e" font-size="11">Email Service</text>
  <rect x="577" y="593" width="148" height="24" rx="12" fill="#fed7aa"/><text x="651"  y="609" text-anchor="middle" fill="#7b341e" font-size="11">ExchangeRate Svc</text>
  <rect x="733" y="593" width="170" height="24" rx="12" fill="#fed7aa"/><text x="818"  y="609" text-anchor="middle" fill="#7b341e" font-size="11">GlobalExceptionHandler</text>
  <rect x="911" y="593" width="118" height="24" rx="12" fill="#fed7aa"/><text x="970"  y="609" text-anchor="middle" fill="#7b341e" font-size="11">ApiResponse&lt;T&gt;</text>

  <!-- ── Vertical Slices Label ── -->
  <text x="550" y="668" text-anchor="middle" fill="#c05621" font-size="12" font-weight="bold" letter-spacing="1">VERTICAL SLICES</text>

  <!-- helper macro-like positions: slice 1 x=60, slice 2 x=320, slice 3 x=580, slice 4 x=840 -->

  <!-- ── Auth Slice ── -->
  <rect x="60" y="676" width="230" height="368" rx="8" fill="white" stroke="#4299e1" stroke-width="1.5"/>
  <rect x="60" y="676" width="230" height="30" rx="8" fill="#2b6cb0"/>
  <text x="175" y="696" text-anchor="middle" fill="white" font-size="13" font-weight="bold">🔐 Auth Slice</text>

  <text x="80" y="724" fill="#4a5568" font-size="11" font-weight="bold">Controller</text>
  <rect x="80" y="730" width="190" height="44" rx="5" fill="#ebf8ff"/>
  <text x="175" y="748" text-anchor="middle" fill="#2b6cb0" font-size="10">POST /auth/register</text>
  <text x="175" y="762" text-anchor="middle" fill="#2b6cb0" font-size="10">POST /auth/login</text>

  <text x="80" y="792" fill="#4a5568" font-size="11" font-weight="bold">Service</text>
  <rect x="80" y="798" width="190" height="44" rx="5" fill="#ebf8ff"/>
  <text x="175" y="816" text-anchor="middle" fill="#2b6cb0" font-size="10">UserService</text>
  <text x="175" y="830" text-anchor="middle" fill="#2b6cb0" font-size="10">register · login · getUser</text>

  <text x="80" y="860" fill="#4a5568" font-size="11" font-weight="bold">Repository</text>
  <rect x="80" y="866" width="190" height="56" rx="5" fill="#ebf8ff"/>
  <text x="175" y="883" text-anchor="middle" fill="#2b6cb0" font-size="10">UserRepository</text>
  <text x="175" y="897" text-anchor="middle" fill="#2b6cb0" font-size="10">OAuthAccountRepository</text>
  <text x="175" y="911" text-anchor="middle" fill="#2b6cb0" font-size="10">RefreshTokenRepository</text>

  <text x="80" y="942" fill="#4a5568" font-size="11" font-weight="bold">Models</text>
  <rect x="80" y="948" width="190" height="44" rx="5" fill="#ebf8ff"/>
  <text x="175" y="966" text-anchor="middle" fill="#2b6cb0" font-size="10">User · OAuthAccount</text>
  <text x="175" y="980" text-anchor="middle" fill="#2b6cb0" font-size="10">RefreshToken · UserRole</text>

  <text x="80" y="1010" fill="#4a5568" font-size="11" font-weight="bold">DTOs</text>
  <rect x="80" y="1016" width="190" height="20" rx="5" fill="#ebf8ff"/>
  <text x="175" y="1030" text-anchor="middle" fill="#2b6cb0" font-size="10">LoginReq · RegisterReq · AuthResponse · UserDto</text>

  <!-- ── Product Slice ── -->
  <rect x="320" y="676" width="230" height="368" rx="8" fill="white" stroke="#d69e2e" stroke-width="1.5"/>
  <rect x="320" y="676" width="230" height="30" rx="8" fill="#d69e2e"/>
  <text x="435" y="696" text-anchor="middle" fill="white" font-size="13" font-weight="bold">📦 Product Slice</text>

  <text x="340" y="724" fill="#4a5568" font-size="11" font-weight="bold">Controller</text>
  <rect x="340" y="730" width="190" height="56" rx="5" fill="#fefcbf"/>
  <text x="435" y="748" text-anchor="middle" fill="#744210" font-size="10">GET /products</text>
  <text x="435" y="762" text-anchor="middle" fill="#744210" font-size="10">POST /products  ·  PUT /products/{id}</text>
  <text x="435" y="776" text-anchor="middle" fill="#744210" font-size="10">DELETE /products/{id}</text>

  <text x="340" y="806" fill="#4a5568" font-size="11" font-weight="bold">Service</text>
  <rect x="340" y="812" width="190" height="44" rx="5" fill="#fefcbf"/>
  <text x="435" y="830" text-anchor="middle" fill="#744210" font-size="10">ProductService</text>
  <text x="435" y="844" text-anchor="middle" fill="#744210" font-size="10">FileUploadService</text>

  <text x="340" y="874" fill="#4a5568" font-size="11" font-weight="bold">Repository</text>
  <rect x="340" y="880" width="190" height="30" rx="5" fill="#fefcbf"/>
  <text x="435" y="900" text-anchor="middle" fill="#744210" font-size="10">ProductRepository (JPA)</text>

  <text x="340" y="928" fill="#4a5568" font-size="11" font-weight="bold">Model</text>
  <rect x="340" y="934" width="190" height="30" rx="5" fill="#fefcbf"/>
  <text x="435" y="954" text-anchor="middle" fill="#744210" font-size="10">Product</text>

  <text x="340" y="982" fill="#4a5568" font-size="11" font-weight="bold">DTOs</text>
  <rect x="340" y="988" width="190" height="30" rx="5" fill="#fefcbf"/>
  <text x="435" y="1008" text-anchor="middle" fill="#744210" font-size="10">ProductRequest · ProductDto</text>

  <!-- ── Sales Slice ── -->
  <rect x="580" y="676" width="230" height="368" rx="8" fill="white" stroke="#e53e3e" stroke-width="1.5"/>
  <rect x="580" y="676" width="230" height="30" rx="8" fill="#c53030"/>
  <text x="695" y="696" text-anchor="middle" fill="white" font-size="13" font-weight="bold">🧾 Sales Slice</text>

  <text x="600" y="724" fill="#4a5568" font-size="11" font-weight="bold">Controller</text>
  <rect x="600" y="730" width="190" height="56" rx="5" fill="#fff5f5"/>
  <text x="695" y="748" text-anchor="middle" fill="#742a2a" font-size="10">POST /sales</text>
  <text x="695" y="762" text-anchor="middle" fill="#742a2a" font-size="10">GET /sales  ·  GET /sales/{id}</text>
  <text x="695" y="776" text-anchor="middle" fill="#742a2a" font-size="10">DELETE /sales/{id}</text>

  <text x="600" y="806" fill="#4a5568" font-size="11" font-weight="bold">Service</text>
  <rect x="600" y="812" width="190" height="30" rx="5" fill="#fff5f5"/>
  <text x="695" y="832" text-anchor="middle" fill="#742a2a" font-size="10">SaleService (updates stock)</text>

  <text x="600" y="860" fill="#4a5568" font-size="11" font-weight="bold">Repository</text>
  <rect x="600" y="866" width="190" height="44" rx="5" fill="#fff5f5"/>
  <text x="695" y="884" text-anchor="middle" fill="#742a2a" font-size="10">SaleRepository</text>
  <text x="695" y="898" text-anchor="middle" fill="#742a2a" font-size="10">SaleItemRepository</text>

  <text x="600" y="928" fill="#4a5568" font-size="11" font-weight="bold">Models</text>
  <rect x="600" y="934" width="190" height="30" rx="5" fill="#fff5f5"/>
  <text x="695" y="954" text-anchor="middle" fill="#742a2a" font-size="10">Sale · SaleItem</text>

  <text x="600" y="982" fill="#4a5568" font-size="11" font-weight="bold">DTOs</text>
  <rect x="600" y="988" width="190" height="44" rx="5" fill="#fff5f5"/>
  <text x="695" y="1006" text-anchor="middle" fill="#742a2a" font-size="10">SaleRequest · SaleResponse</text>
  <text x="695" y="1020" text-anchor="middle" fill="#742a2a" font-size="10">SaleItemRequest · SaleItemDto</text>

  <!-- ── Dashboard (Planned) Slice ── -->
  <rect x="840" y="676" width="210" height="368" rx="8" fill="white" stroke="#805ad5" stroke-width="1.5"/>
  <rect x="840" y="676" width="210" height="30" rx="8" fill="#6b46c1"/>
  <text x="945" y="696" text-anchor="middle" fill="white" font-size="13" font-weight="bold">📊 Dashboard</text>

  <text x="858" y="724" fill="#4a5568" font-size="11" font-weight="bold">Controller</text>
  <rect x="858" y="730" width="172" height="30" rx="5" fill="#faf5ff"/>
  <text x="944" y="750" text-anchor="middle" fill="#553c9a" font-size="10">GET /dashboard/summary</text>

  <text x="858" y="778" fill="#4a5568" font-size="11" font-weight="bold">Service</text>
  <rect x="858" y="784" width="172" height="44" rx="5" fill="#faf5ff"/>
  <text x="944" y="803" text-anchor="middle" fill="#553c9a" font-size="10">Aggregate metrics from</text>
  <text x="944" y="817" text-anchor="middle" fill="#553c9a" font-size="10">Products &amp; Sales</text>

  <text x="858" y="848" fill="#4a5568" font-size="11" font-weight="bold">Frontend Page</text>
  <rect x="858" y="854" width="172" height="44" rx="5" fill="#faf5ff"/>
  <text x="944" y="873" text-anchor="middle" fill="#553c9a" font-size="10">DashboardPage.tsx</text>
  <text x="944" y="887" text-anchor="middle" fill="#553c9a" font-size="10">(React / Web only)</text>

  <!-- Arrow from backend → data layer -->
  <line x1="550" y1="1070" x2="550" y2="1100" stroke="#4a5568" stroke-width="2.5" stroke-dasharray="6,3" marker-end="url(#arr)"/>
  <text x="550" y="1090" text-anchor="middle" fill="#4a5568" font-size="11" font-style="italic">JPA / Hibernate (PostgreSQL JDBC)</text>

  <!-- ══════════════════════════════════════════════
       DATA LAYER
  ══════════════════════════════════════════════ -->
  <rect x="30" y="1104" width="1040" height="200" rx="10" fill="#f0fff4" stroke="#38a169" stroke-width="2"/>
  <text x="42" y="1126" fill="#276749" font-size="13" font-weight="bold" letter-spacing="1">DATA LAYER</text>

  <!-- PostgreSQL / Supabase -->
  <rect x="60" y="1134" width="540" height="154" rx="8" fill="white" stroke="#68d391" stroke-width="1.5"/>
  <rect x="60" y="1134" width="540" height="30" rx="8" fill="#38a169"/>
  <text x="330" y="1154" text-anchor="middle" fill="white" font-size="13" font-weight="bold">🐘  PostgreSQL — Supabase (AWS ap-south-1)</text>

  <text x="80" y="1178" fill="#276749" font-size="11" font-weight="bold">Tables:</text>
  <rect x="80"  y="1185" width="86"  height="22" rx="11" fill="#c6f6d5"/><text x="123"  y="1200" text-anchor="middle" fill="#276749" font-size="10">users</text>
  <rect x="174" y="1185" width="118" height="22" rx="11" fill="#c6f6d5"/><text x="233"  y="1200" text-anchor="middle" fill="#276749" font-size="10">oauth_accounts</text>
  <rect x="300" y="1185" width="124" height="22" rx="11" fill="#c6f6d5"/><text x="362"  y="1200" text-anchor="middle" fill="#276749" font-size="10">refresh_tokens</text>
  <rect x="432" y="1185" width="90"  height="22" rx="11" fill="#c6f6d5"/><text x="477"  y="1200" text-anchor="middle" fill="#276749" font-size="10">products</text>
  <rect x="80"  y="1213" width="80"  height="22" rx="11" fill="#c6f6d5"/><text x="120"  y="1228" text-anchor="middle" fill="#276749" font-size="10">sales</text>
  <rect x="168" y="1213" width="96"  height="22" rx="11" fill="#c6f6d5"/><text x="216"  y="1228" text-anchor="middle" fill="#276749" font-size="10">sale_items</text>

  <text x="80" y="1272" fill="#718096" font-size="11">Connection Pooling via Supabase PgBouncer  ·  SSL/TLS required</text>

  <!-- File Storage -->
  <rect x="630" y="1134" width="230" height="154" rx="8" fill="white" stroke="#68d391" stroke-width="1.5"/>
  <rect x="630" y="1134" width="230" height="30" rx="8" fill="#276749"/>
  <text x="745" y="1154" text-anchor="middle" fill="white" font-size="13" font-weight="bold">🗄  File Storage</text>
  <text x="745" y="1184" text-anchor="middle" fill="#276749" font-size="11">Local Disk</text>
  <text x="745" y="1200" text-anchor="middle" fill="#718096" font-size="11">uploads/products/</text>
  <text x="745" y="1220" text-anchor="middle" fill="#718096" font-size="11">Served via static endpoint</text>
  <text x="745" y="1240" text-anchor="middle" fill="#718096" font-size="11">Product image upload (FileUploadService)</text>

  <!-- Arrow from backend → external services -->
  <line x1="550" y1="1306" x2="550" y2="1336" stroke="#4a5568" stroke-width="2" stroke-dasharray="6,3" marker-end="url(#arr)"/>
  <text x="550" y="1327" text-anchor="middle" fill="#4a5568" font-size="11" font-style="italic">SMTP / HTTP (external APIs)</text>

  <!-- ══════════════════════════════════════════════
       EXTERNAL SERVICES
  ══════════════════════════════════════════════ -->
  <rect x="30" y="1340" width="1040" height="62" rx="10" fill="#fff5f5" stroke="#fc8181" stroke-width="2"/>
  <text x="42" y="1362" fill="#c53030" font-size="13" font-weight="bold" letter-spacing="1">EXTERNAL SERVICES</text>

  <rect x="200" y="1353" width="200" height="26" rx="13" fill="#fed7d7"/><text x="300" y="1370" text-anchor="middle" fill="#742a2a" font-size="12">📧  Gmail SMTP (Email Alerts)</text>
  <rect x="650" y="1353" width="250" height="26" rx="13" fill="#fed7d7"/><text x="775" y="1370" text-anchor="middle" fill="#742a2a" font-size="12">💱  Exchange Rate API (Rates)</text>

  <!-- ══════════════════════════════════════════════
       LEGEND
  ══════════════════════════════════════════════ -->
  <rect x="860" y="1134" width="210" height="154" rx="8" fill="#edf2f7" stroke="#a0aec0" stroke-width="1"/>
  <text x="965" y="1154" text-anchor="middle" fill="#4a5568" font-size="12" font-weight="bold">Legend</text>
  <line x1="880" y1="1168" x2="920" y2="1168" stroke="#4a5568" stroke-width="2" stroke-dasharray="6,3" marker-end="url(#arr)"/>
  <text x="930" y="1172" fill="#4a5568" font-size="10">HTTP / JDBC call</text>
  <line x1="880" y1="1188" x2="920" y2="1188" stroke="#4a5568" stroke-width="2" marker-end="url(#arr)"/>
  <text x="930" y="1192" fill="#4a5568" font-size="10">User action</text>
  <rect x="880" y="1204" width="18" height="12" rx="3" fill="#2b6cb0"/><text x="910" y="1215" fill="#4a5568" font-size="10">Auth Slice</text>
  <rect x="880" y="1222" width="18" height="12" rx="3" fill="#d69e2e"/><text x="910" y="1233" fill="#4a5568" font-size="10">Product Slice</text>
  <rect x="880" y="1240" width="18" height="12" rx="3" fill="#c53030"/><text x="910" y="1251" fill="#4a5568" font-size="10">Sales Slice</text>
  <rect x="880" y="1258" width="18" height="12" rx="3" fill="#6b46c1"/><text x="910" y="1269" fill="#4a5568" font-size="10">Dashboard</text>

  <!-- ══════════════════════════════════════════════
       ARROW MARKER
  ══════════════════════════════════════════════ -->
  <defs>
    <marker id="arr" markerWidth="8" markerHeight="8" refX="6" refY="3" orient="auto">
      <path d="M0,0 L0,6 L8,3 z" fill="#4a5568"/>
    </marker>
  </defs>

</svg>
